<?xml version="1.0" encoding="utf-8"?>
<!-- Generator: Adobe Illustrator 21.0.1, SVG Export Plug-In . SVG Version: 6.00 Build 0)  -->
<svg version="1.1" id="Layer_1" xmlns="http://www.w3.org/2000/svg" xmlns:xlink="http://www.w3.org/1999/xlink" x="0px" y="0px"
   width="800px" height="500px" viewBox="0 0 800 500" style="enable-background:new 0 0 800 500;" xml:space="preserve">
<style type="text/css">
  .st0{fill:#000;}
</style>
  <path class="st0" d="M96.217,170.569l-12.182-18.373l4.936-3.262l-2.638-3.979l16.669-11.052l2.655,4.004l8.343-5.514l-2.663-4.016
    l16.669-11.052l2.68,4.042l8.343-5.514l-2.688-4.054l16.669-11.052l2.705,4.079l10.812-7.146l-2.715-4.095l16.669-11.052
    l2.732,4.12l8.343-5.514l-2.74-4.133l16.669-11.052l2.757,4.158l8.343-5.514l-2.765-4.171l16.669-11.052l2.782,4.196l3.407-2.251
    l12.04,18.158l-3.403,2.256l2.858,4.311l-16.669,11.052l-2.86-4.313l-8.335,5.525l2.86,4.313l-16.669,11.052l-2.861-4.315
    l-8.335,5.525l2.862,4.316l-16.669,11.052l-2.863-4.318l-10.802,7.161l2.863,4.319l-16.669,11.052l-2.865-4.32l-8.335,5.525
    l2.865,4.321l-16.669,11.052l-2.866-4.323l-8.335,5.525l2.867,4.324l-16.669,11.052l-2.868-4.325L96.217,170.569z"/>
</svg>
