<?xml version="1.0" encoding="utf-8"?>
<!-- Generator: Adobe Illustrator 21.0.1, SVG Export Plug-In . SVG Version: 6.00 Build 0)  -->
<svg version="1.1" id="Layer_1" xmlns="http://www.w3.org/2000/svg" xmlns:xlink="http://www.w3.org/1999/xlink" x="0px" y="0px"
   width="800px" height="500px" viewBox="0 0 800 500" style="enable-background:new 0 0 800 500;" xml:space="preserve">
<style type="text/css">
  .st0{fill:#000;}
</style>
  <path class="st0" d="M39,278H17v-5.5h-4.5v-20H17v-10h-4.5v-20H17v-26l21.915-14.484l-2.588-3.904l16.669-11.052l2.605,3.929
    l8.343-5.514l-2.613-3.941l16.669-11.052l2.63,3.966l3.407-2.251l12.182,18.373l-3.403,2.256l2.868,4.326l-16.669,11.052
    l-2.869-4.328l-8.335,5.525l2.87,4.328l-16.669,11.052l-2.871-4.33L39,208.5v14h5.5v20H39v10h5.5v20H39L39,278z"/>
</svg>
