<?xml version="1.0" encoding="utf-8"?>
<!-- Generator: Adobe Illustrator 21.0.1, SVG Export Plug-In . SVG Version: 6.00 Build 0)  -->
<svg version="1.1" id="Layer_1" xmlns="http://www.w3.org/2000/svg" xmlns:xlink="http://www.w3.org/1999/xlink" x="0px" y="0px"
   width="800px" height="500px" viewBox="0 0 800 500" style="enable-background:new 0 0 800 500;" xml:space="preserve">
<style type="text/css">
  .st0{fill:#000;}
</style>
  <path class="st0" d="M508.5,467.5v22h-5v5h-20v-5h-10v5h-20v-5h-10v5h-20v-5h-10v5h-20v-5h-10v5h-20v-5h-10v5h-20v-5H316v5h-20v-5
    h-17.5v5h-20v-5h-10v5h-20v-5h-10v5h-20v-5h-10v5h-20v-5h-10v5h-20v-5h-10v5h-20v-5h-5v-22h5v-5h20v5h10v-5h20v5h10v-5h20v5h10v-5
    h20v5h10v-5h20v5h10v-5h20v5H296v-5h20v5h17.5v-5h20v5h10v-5h20v5h10v-5h20v5h10v-5h20v5h10v-5h20v5h10v-5h20v5H508.5z"/>
</svg>