<?xml version="1.0" encoding="utf-8"?>
<!-- Generator: Adobe Illustrator 21.0.1, SVG Export Plug-In . SVG Version: 6.00 Build 0)  -->
<svg version="1.1" id="Layer_1" xmlns="http://www.w3.org/2000/svg" xmlns:xlink="http://www.w3.org/1999/xlink" x="0px" y="0px"
   width="800px" height="500px" viewBox="0 0 800 500" style="enable-background:new 0 0 800 500;" xml:space="preserve">
<style type="text/css">
  .st0{fill:#000;}
</style>
<path class="st0" d="M514.255,169.556l12.181-18.371l4.936,3.262l2.63-3.966l16.669,11.052l-2.613,3.941l8.343,5.514l2.605-3.929
    l16.669,11.052l-2.588,3.904L595,196.5v26h4.5v20H595v10h4.5v20H595v4.5h-22v-4.5h-5.5v-20h5.5v-10h-5.5v-20h5.5v-14l-12.139-8.048
    l-2.871,4.33l-16.669-11.052l2.87-4.328l-8.335-5.525l-2.87,4.328l-16.669-11.052l2.868-4.326L514.255,169.556z"/>
</svg>
