<?xml version="1.0" encoding="utf-8"?>
<!-- Generator: Adobe Illustrator 21.0.1, SVG Export Plug-In . SVG Version: 6.00 Build 0)  -->
<svg version="1.1" id="Layer_1" xmlns="http://www.w3.org/2000/svg" xmlns:xlink="http://www.w3.org/1999/xlink" x="0px" y="0px"
   width="800px" height="500px" viewBox="0 0 800 500" style="enable-background:new 0 0 800 500;" xml:space="preserve">
<style type="text/css">
  .st0{fill:#000;}
</style>
  <path class="st0" d="M361.76,68.464l12.039-18.156l4.936,3.262l2.782-4.196l16.669,11.052l-2.765,4.171l8.343,5.514l2.757-4.158
    l16.669,11.052l-2.74,4.133l8.343,5.514l2.732-4.12l16.669,11.052l-2.716,4.095l10.812,7.146l2.705-4.079l16.669,11.052
    l-2.688,4.054l8.343,5.514l2.68-4.042l16.669,11.052l-2.663,4.016l8.343,5.514l2.655-4.004l16.669,11.052l-2.638,3.979l3.407,2.251
    l-12.181,18.371l-3.403-2.256l-2.868,4.325l-16.669-11.052l2.867-4.324l-8.335-5.525l-2.866,4.323l-16.669-11.052l2.865-4.321
    l-8.335-5.525l-2.865,4.32l-16.669-11.052l2.863-4.319l-10.802-7.161l-2.863,4.318l-16.669-11.052l2.862-4.316l-8.335-5.525
    l-2.861,4.315l-16.669-11.052l2.86-4.313l-8.335-5.525l-2.86,4.313l-16.669-11.052l2.858-4.311L361.76,68.464z"/>
</svg>