<?xml version="1.0" encoding="utf-8"?>
<svg version="1.1" id="Layer_1" xmlns="http://www.w3.org/2000/svg" xmlns:xlink="http://www.w3.org/1999/xlink" xml:space="preserve">

<path xmlns="http://www.w3.org/2000/svg" d="M-202.5,11l0,-22l5,0l0,-5l20,0l0,5l10,0l0,-5l20,0l0,5l10,0l0,-5l20,0l0,5l10,0l0,-5l20,0l0,5l10,0l0,-5l20,0l0,5l10,0l0,-5l20,0l0,5l17.5,0l0,-5l20,0l0,5l17.5,0l0,-5l20,0l0,5l10,0l0,-5l20,0l0,5l10,0l0,-5l20,0l0,5l10,0l0,-5l20,0l0,5l10,0l0,-5l20,0l0,5l10,0l0,-5l20,0l0,5l5,0l0,22l-5,0l0,5l-20,0l0,-5l-10,0l0,5l-20,0l0,-5l-10,0l0,5l-20,0l0,-5l-10,0l0,5l-20,0l0,-5l-10,0l0,5l-20,0l0,-5l-10,0l0,5l-20,0l0,-5l-17.5,0l0,5l-20,0l0,-5l-17.5,0l0,5l-20,0l0,-5l-10,0l0,5l-20,0l0,-5l-10,0l0,5l-20,0l0,-5l-10,0l0,5l-20,0l0,-5l-10,0l0,5l-20,0l0,-5l-10,0l0,5l-20,0l0,-5z" fill="#000"/>

</svg>
