<?xml version="1.0" encoding="utf-8"?>
<svg version="1.1" id="Layer_1" xmlns="http://www.w3.org/2000/svg" xmlns:xlink="http://www.w3.org/1999/xlink" x="0px" y="0px"
   viewBox="0 0 800 500" style="enable-background:new 0 0 800 500;" xml:space="preserve">

<g>
<path xmlns="http://www.w3.org/2000/svg" d="M209.78275,307.93054l12.18234,18.37282l-4.93611,3.26227l2.63823,3.97885l-16.66868,11.05238l-2.65485,-4.00392l-8.34265,5.51366l2.66317,4.01646l-16.66868,11.05238l-2.67979,-4.04153l-8.34265,5.51366l2.6881,4.05407l-16.66868,11.05238l-2.70473,-4.07914l-10.81194,7.1456l2.7155,4.09539l-16.66868,11.05238l-2.73213,-4.12046l-8.34265,5.51366l2.74044,4.133l-16.66868,11.05238l-2.75707,-4.15808l-8.34265,5.51366l2.76538,4.17061l-16.66868,11.05238l-2.782,-4.19569l-3.40654,2.25138l-12.0402,-18.15845l3.40337,-2.25617l-2.85844,-4.31096l16.66868,-11.05238l2.85953,4.3126l8.33488,-5.52537l-2.86007,-4.31342l16.66868,-11.05238l2.86116,4.31506l8.33488,-5.52537l-2.8617,-4.31588l16.66868,-11.05238l2.86279,4.31752l10.80187,-7.16079l-2.8635,-4.31859l16.66868,-11.05238l2.86458,4.32023l8.33488,-5.52537l-2.86513,-4.32105l16.66868,-11.05238l2.86622,4.32269l8.33488,-5.52537l-2.86676,-4.32351l16.66868,-11.05238l2.86785,4.32515z" fill="#ffffff" fill-rule="nonzero" stroke="#0000ff" stroke-width="1" stroke-linecap="butt" stroke-linejoin="miter" stroke-miterlimit="10" stroke-dasharray="" stroke-dashoffset="0" font-family="none" font-weight="none" font-size="none" text-anchor="none" style="mix-blend-mode: normal"/>

<path xmlns="http://www.w3.org/2000/svg" d="M267,200.5l22,0l0,5.5l4.5,0l0,20l-4.5,0l0,10l4.5,0l0,20l-4.5,0l0,26l-21.91512,14.4837l2.58835,3.90363l-16.66868,11.05238l-2.60498,-3.9287l-8.34265,5.51366l2.61329,3.94124l-16.66868,11.05238l-2.62992,-3.96631l-3.40654,2.25138l-12.18234,-18.37282l3.40337,-2.25617l-2.86839,-4.32597l16.66868,-11.05238l2.86948,4.32761l8.33488,-5.52537l-2.87002,-4.32843l16.66868,-11.05238l2.87111,4.33007l12.13947,-8.04752l0,-14l-5.5,0l0,-20l5.5,0l0,-10l-5.5,0l0,-20l5.5,0z" fill="#ffffff" fill-rule="nonzero" stroke="#0000ff" stroke-width="1" stroke-linecap="butt" stroke-linejoin="miter" stroke-miterlimit="10" stroke-dasharray="" stroke-dashoffset="0" font-family="none" font-weight="none" font-size="none" text-anchor="none" style="mix-blend-mode: normal"/>

<path xmlns="http://www.w3.org/2000/svg" d="M267,74.5l22,0l0,5.5l4.5,0l0,20l-4.5,0l0,10l4.5,0l0,20l-4.5,0l0,16l4.5,0l0,20l-4.5,0l0,10l4.5,0l0,20l-4.5,0l0,4.5l-22,0l0,-4.5l-5.5,0l0,-20l5.5,0l0,-10l-5.5,0l0,-20l5.5,0l0,-16l-5.5,0l0,-20l5.5,0l0,-10l-5.5,0l0,-20l5.5,0z" fill="#ffffff" fill-rule="nonzero" stroke="#0000ff" stroke-width="1" stroke-linecap="butt" stroke-linejoin="miter" stroke-miterlimit="10" stroke-dasharray="" stroke-dashoffset="0" font-family="none" font-weight="none" font-size="none" text-anchor="none" style="mix-blend-mode: normal"/>

<path xmlns="http://www.w3.org/2000/svg" d="M202.5,11l0,-22l5,0l0,-5l20,0l0,5l10,0l0,-5l20,0l0,5l31.5,0l0,31l4.5,0l0,20l-4.5,0l0,10l4.5,0l0,20l-4.5,0l0,4.5l-22,0l0,-4.5l-5.5,0l0,-20l5.5,0l0,-10l-5.5,0l0,-20l5.5,0l0,-9l-9.5,0l0,5l-20,0l0,-5l-10,0l0,5l-20,0l0,-5z" fill="#ffffff" fill-rule="nonzero" stroke="#0000ff" stroke-width="1" stroke-linecap="butt" stroke-linejoin="miter" stroke-miterlimit="10" stroke-dasharray="" stroke-dashoffset="0" font-family="none" font-weight="none" font-size="none" text-anchor="none" style="mix-blend-mode: normal"/>

<path xmlns="http://www.w3.org/2000/svg" d="M-202.5,11l0,-22l5,0l0,-5l20,0l0,5l10,0l0,-5l20,0l0,5l10,0l0,-5l20,0l0,5l10,0l0,-5l20,0l0,5l10,0l0,-5l20,0l0,5l10,0l0,-5l20,0l0,5l17.5,0l0,-5l20,0l0,5l17.5,0l0,-5l20,0l0,5l10,0l0,-5l20,0l0,5l10,0l0,-5l20,0l0,5l10,0l0,-5l20,0l0,5l10,0l0,-5l20,0l0,5l10,0l0,-5l20,0l0,5l5,0l0,22l-5,0l0,5l-20,0l0,-5l-10,0l0,5l-20,0l0,-5l-10,0l0,5l-20,0l0,-5l-10,0l0,5l-20,0l0,-5l-10,0l0,5l-20,0l0,-5l-10,0l0,5l-20,0l0,-5l-17.5,0l0,5l-20,0l0,-5l-17.5,0l0,5l-20,0l0,-5l-10,0l0,5l-20,0l0,-5l-10,0l0,5l-20,0l0,-5l-10,0l0,5l-20,0l0,-5l-10,0l0,5l-20,0l0,-5l-10,0l0,5l-20,0l0,-5z" fill="#ffffff" fill-rule="nonzero" stroke="#0000ff" stroke-width="1" stroke-linecap="butt" stroke-linejoin="miter" stroke-miterlimit="10" stroke-dasharray="" stroke-dashoffset="0" font-family="none" font-weight="none" font-size="none" text-anchor="none" style="mix-blend-mode: normal"/>

<path xmlns="http://www.w3.org/2000/svg" d="M-267,75.5l-22,0l0,-5.5l-4.5,0l0,-20l4.5,0l0,-10l-4.5,0l0,-20l4.5,0l0,-31l31.5,0l0,-5l20,0l0,5l10,0l0,-5l20,0l0,5l5,0l0,22l-5,0l0,5l-20,0l0,-5l-10,0l0,5l-20,0l0,-5l-9.5,0l0,9l5.5,0l0,20l-5.5,0l0,10l5.5,0l0,20l-5.5,0z" fill="#ffffff" fill-rule="nonzero" stroke="#0000ff" stroke-width="1" stroke-linecap="butt" stroke-linejoin="miter" stroke-miterlimit="10" stroke-dasharray="" stroke-dashoffset="0" font-family="none" font-weight="none" font-size="none" text-anchor="none" style="mix-blend-mode: normal"/>

<path xmlns="http://www.w3.org/2000/svg" d="M-267,201.5l-22,0l0,-5.5l-4.5,0l0,-20l4.5,0l0,-10l-4.5,0l0,-20l4.5,0l0,-16l-4.5,0l0,-20l4.5,0l0,-10l-4.5,0l0,-20l4.5,0l0,-4.5l22,0l0,4.5l5.5,0l0,20l-5.5,0l0,10l5.5,0l0,20l-5.5,0l0,16l5.5,0l0,20l-5.5,0l0,10l5.5,0l0,20l-5.5,0z" fill="#ffffff" fill-rule="nonzero" stroke="#0000ff" stroke-width="1" stroke-linecap="butt" stroke-linejoin="miter" stroke-miterlimit="10" stroke-dasharray="" stroke-dashoffset="0" font-family="none" font-weight="none" font-size="none" text-anchor="none" style="mix-blend-mode: normal"/>

<path xmlns="http://www.w3.org/2000/svg" d="M-208.2546,308.94358l-12.18091,18.37067l-4.93611,-3.26227l-2.62992,3.96631l-16.66868,-11.05238l2.61329,-3.94124l-8.34265,-5.51366l-2.60498,3.9287l-16.66868,-11.05238l2.58835,-3.90363l-21.91512,-14.4837l0,-26l-4.5,0l0,-20l4.5,0l0,-10l-4.5,0l0,-20l4.5,0l0,-4.5l22,0l0,4.5l5.5,0l0,20l-5.5,0l0,10l5.5,0l0,20l-5.5,0l0,14l12.13947,8.04752l2.87111,-4.33007l16.66868,11.05238l-2.87002,4.32843l8.33488,5.52537l2.86948,-4.32761l16.66868,11.05238l-2.86839,4.32597z" fill="#ffffff" fill-rule="nonzero" stroke="#0000ff" stroke-width="1" stroke-linecap="butt" stroke-linejoin="miter" stroke-miterlimit="10" stroke-dasharray="" stroke-dashoffset="0" font-family="none" font-weight="none" font-size="none" text-anchor="none" style="mix-blend-mode: normal"/>

<path xmlns="http://www.w3.org/2000/svg" d="M-55.75973,410.03569l-12.03878,18.15631l-4.93611,-3.26227l-2.782,4.19569l-16.66868,-11.05238l2.76538,-4.17061l-8.34265,-5.51366l-2.75707,4.15808l-16.66868,-11.05238l2.74044,-4.133l-8.34265,-5.51366l-2.73213,4.12046l-16.66868,-11.05238l2.7155,-4.09539l-10.81194,-7.1456l-2.70473,4.07914l-16.66868,-11.05238l2.6881,-4.05407l-8.34265,-5.51366l-2.67979,4.04153l-16.66868,-11.05238l2.66317,-4.01646l-8.34265,-5.51366l-2.65485,4.00392l-16.66868,-11.05238l2.63823,-3.97885l-3.40654,-2.25138l12.18091,-18.37067l3.40337,2.25617l2.86785,-4.32515l16.66868,11.05238l-2.86676,4.32351l8.33488,5.52537l2.86622,-4.32269l16.66868,11.05238l-2.86513,4.32105l8.33488,5.52537l2.86458,-4.32023l16.66868,11.05238l-2.8635,4.31859l10.80187,7.16079l2.86279,-4.31752l16.66868,11.05238l-2.8617,4.31588l8.33488,5.52537l2.86116,-4.31506l16.66868,11.05238l-2.86007,4.31342l8.33488,5.52537l2.85953,-4.3126l16.66868,11.05238l-2.85844,4.31096z" fill="#ffffff" fill-rule="nonzero" stroke="#0000ff" stroke-width="1" stroke-linecap="butt" stroke-linejoin="miter" stroke-miterlimit="10" stroke-dasharray="" stroke-dashoffset="0" font-family="none" font-weight="none" font-size="none" text-anchor="none" style="mix-blend-mode: normal"/>

<path xmlns="http://www.w3.org/2000/svg" d="M57.28787,409.02265l12.0402,18.15845l-4.93611,3.26227l2.79032,4.20822l-16.66868,11.05238l-2.80694,-4.2333l-8.34265,5.51366l2.81525,4.24583l-16.66868,11.05238l-2.83188,-4.27091l-22.6787,14.98835l-22.6787,-14.98835l-2.83188,4.27091l-16.66868,-11.05238l2.81525,-4.24583l-8.34265,-5.51366l-2.80694,4.2333l-16.66868,-11.05238l2.79032,-4.20822l-3.40654,-2.25138l12.03878,-18.15631l3.40337,2.25617l2.85789,-4.31014l16.66868,11.05238l-2.85681,4.3085l8.33488,5.52537l2.85626,-4.30768l16.66868,11.05238l-2.85517,4.30604l10.68194,7.08129l10.68194,-7.08129l-2.85517,-4.30604l16.66868,-11.05238l2.85626,4.30768l8.33488,-5.52537l-2.85681,-4.3085l16.66868,-11.05238l2.85789,4.31014z" fill="#ffffff" fill-rule="nonzero" stroke="#0000ff" stroke-width="1" stroke-linecap="butt" stroke-linejoin="miter" stroke-miterlimit="10" stroke-dasharray="" stroke-dashoffset="0" font-family="none" font-weight="none" font-size="none" text-anchor="none" style="mix-blend-mode: normal"/>
</g>

</svg>
