<!-- https://jakearchibald.github.io/svgomg/ -->
<svg xmlns="http://www.w3.org/2000/svg" viewBox="0 0 800 500">
  <g fill="#fff" stroke="#00f" stroke-miterlimit="10">
    <path d="M209.783 307.93l12.182 18.373-4.936 3.263 2.63 3.978L203 344.597l-2.656-4.004-8.343 5.514 2.67 4.016L178 361.175l-2.68-4.04-8.344 5.513 2.688 4.054-16.667 11.052-2.705-4.08-10.81 7.146 2.714 4.096-16.667 11.052-2.74-4.12-8.34 5.513 2.74 4.14-16.67 11.06-2.76-4.16-8.346 5.517 2.765 4.17-16.67 11.053-2.78-4.196-3.408 2.25-12.04-18.154 3.4-2.26-2.856-4.31 16.66-11.055 2.86 4.313 8.335-5.526-2.86-4.313 16.67-11.055 2.86 4.316 8.336-5.524-2.86-4.316 16.67-11.05 2.86 4.32 10.806-7.16-2.86-4.32 16.667-11.053 2.865 4.32 8.334-5.524-2.866-4.32 16.67-11.052 2.87 4.325 8.333-5.525-2.864-4.323 16.67-11.053 2.867 4.325z"/>
    <path d="M267 200.5h22v5.5h4.5v20H289v10h4.5v20H289v26l-21.915 14.484 2.588 3.903-16.668 11.053-2.605-3.93-8.343 5.515 2.613 3.94-16.668 11.053-2.63-3.966-3.407 2.25-12.182-18.37 3.403-2.258-2.868-4.326 16.668-11.052 2.87 4.328 8.335-5.526-2.87-4.328 16.67-11.053 2.87 4.33L267 270v-14h-5.5v-20h5.5v-10h-5.5v-20h5.5z"/>
    <path d="M267 74.5h22V80h4.5v20H289v10h4.5v20H289v16h4.5v20H289v10h4.5v20H289v4.5h-22V196h-5.5v-20h5.5v-10h-5.5v-20h5.5v-16h-5.5v-20h5.5v-10h-5.5V80h5.5z"/>
    <path d="M202.5 11v-22h5v-5h20v5h10v-5h20v5H289v31h4.5v20H289v10h4.5v20H289v4.5h-22V70h-5.5V50h5.5V40h-5.5V20h5.5v-9h-9.5v5h-20v-5h-10v5h-20v-5z"/>
    <path d="M-202.5 11v-22h5v-5h20v5h10v-5h20v5h10v-5h20v5h10v-5h20v5h10v-5h20v5h10v-5h20v5H-10v-5h20v5h17.5v-5h20v5h10v-5h20v5h10v-5h20v5h10v-5h20v5h10v-5h20v5h10v-5h20v5h5v22h-5v5h-20v-5h-10v5h-20v-5h-10v5h-20v-5h-10v5h-20v-5h-10v5h-20v-5h-10v5h-20v-5H10v5h-20v-5h-17.5v5h-20v-5h-10v5h-20v-5h-10v5h-20v-5h-10v5h-20v-5h-10v5h-20v-5h-10v5h-20v-5z"/>
    <path d="M-267 75.5h-22V70h-4.5V50h4.5V40h-4.5V20h4.5v-31h31.5v-5h20v5h10v-5h20v5h5v22h-5v5h-20v-5h-10v5h-20v-5h-9.5v9h5.5v20h-5.5v10h5.5v20h-5.5z"/>
    <path d="M-267 201.5h-22V196h-4.5v-20h4.5v-10h-4.5v-20h4.5v-16h-4.5v-20h4.5v-10h-4.5V80h4.5v-4.5h22V80h5.5v20h-5.5v10h5.5v20h-5.5v16h5.5v20h-5.5v10h5.5v20h-5.5z"/>
    <path d="M-208.255 308.944l-12.18 18.37-4.937-3.262-2.63 3.966-16.668-11.052 2.613-3.94-8.343-5.515-2.605 3.93-16.668-11.05 2.588-3.9L-289 282v-26h-4.5v-20h4.5v-10h-4.5v-20h4.5v-4.5h22v4.5h5.5v20h-5.5v10h5.5v20h-5.5v14l12.14 8.048 2.87-4.33 16.67 11.052-2.87 4.328 8.334 5.526 2.87-4.328 16.668 11.052-2.868 4.326z"/>
    <path d="M-55.76 410.036l-12.04 18.156-4.935-3.262-2.782 4.195-16.668-11.052 2.765-4.17-8.343-5.514-2.757 4.15-16.668-11.06 2.74-4.135-8.343-5.513-2.74 4.12-16.67-11.05 2.71-4.098-10.81-7.147-2.71 4.08-16.668-11.05 2.686-4.055-8.344-5.515-2.68 4.04-16.67-11.05 2.66-4.017-8.342-5.513-2.654 4-16.664-11.052 2.638-3.977-3.406-2.25 12.18-18.37 3.406 2.257 2.868-4.327 16.67 11.054-2.865 4.324 8.333 5.53 2.864-4.325 16.67 11.056-2.867 4.32 8.334 5.525 2.865-4.32 16.668 11.055-2.86 4.32 10.8 7.16 2.864-4.32 16.67 11.053-2.864 4.312 8.336 5.53 2.86-4.317 16.67 11.052-2.86 4.313 8.332 5.53 2.86-4.31 16.67 11.05-2.86 4.31z"/>
    <path d="M57.288 409.023l12.04 18.158-4.936 3.27 2.79 4.21-16.668 11.05-2.807-4.23-8.343 5.52 2.815 4.248L25.51 462.3l-2.83-4.27L0 473l-22.68-14.988-2.83 4.27-16.67-11.052 2.816-4.246-8.343-5.513-2.807 4.24-16.668-11.05 2.79-4.21-3.407-2.25 12.04-18.15 3.41 2.258 2.86-4.31 16.67 11.05-2.85 4.31 8.335 5.526 2.857-4.31 16.67 11.056-2.856 4.307L0 447l10.682-7.08-2.855-4.307 16.668-11.053 2.857 4.308 8.335-5.525-2.857-4.31 16.668-11.05 2.858 4.31z"/>
  </g>
</svg>
