<?xml version="1.0" encoding="utf-8"?>
<svg version="1.1" id="Layer_1" xmlns="http://www.w3.org/2000/svg" xmlns:xlink="http://www.w3.org/1999/xlink" x="0px" y="0px"
   viewBox="0 0 800 500" style="enable-background:new 0 0 800 500;" xml:space="preserve">

<path xmlns="http://www.w3.org/2000/svg" d="M209.78275,307.93054l12.18234,18.37282l-4.93611,3.26227l2.63823,3.97885l-16.66868,11.05238l-2.65485,-4.00392l-8.34265,5.51366l2.66317,4.01646l-16.66868,11.05238l-2.67979,-4.04153l-8.34265,5.51366l2.6881,4.05407l-16.66868,11.05238l-2.70473,-4.07914l-10.81194,7.1456l2.7155,4.09539l-16.66868,11.05238l-2.73213,-4.12046l-8.34265,5.51366l2.74044,4.133l-16.66868,11.05238l-2.75707,-4.15808l-8.34265,5.51366l2.76538,4.17061l-16.66868,11.05238l-2.782,-4.19569l-3.40654,2.25138l-12.0402,-18.15845l3.40337,-2.25617l-2.85844,-4.31096l16.66868,-11.05238l2.85953,4.3126l8.33488,-5.52537l-2.86007,-4.31342l16.66868,-11.05238l2.86116,4.31506l8.33488,-5.52537l-2.8617,-4.31588l16.66868,-11.05238l2.86279,4.31752l10.80187,-7.16079l-2.8635,-4.31859l16.66868,-11.05238l2.86458,4.32023l8.33488,-5.52537l-2.86513,-4.32105l16.66868,-11.05238l2.86622,4.32269l8.33488,-5.52537l-2.86676,-4.32351l16.66868,-11.05238l2.86785,4.32515z" fill="#000" />

</svg>